<?xml version="1.0" encoding="UTF-8" standalone="no"?>
<svg xmlns="http://www.w3.org/2000/svg" width="2000" height="550.29871" version="1.1">
  <title>Claro TV</title>
  <g transform="matrix(4,0,0,4,-477.86936,-1388.3296)">
    <path transform="matrix(0.25,0,0,0.25,119.46734,347.0824)" d="M 1603.1289 182.42773 L 1603.1289 267.7832 L 1572.6465 267.7832 L 1572.6465 322.66602 L 1603.1289 322.66602 L 1603.1289 465.66992 C 1603.1289 506.68748 1628.0767 548.25586 1686.8223 548.25586 L 1726.1816 548.25586 L 1726.1816 487.28516 L 1700.1309 487.28516 C 1682.9509 487.28516 1675.1953 477.8663 1675.1953 461.23242 L 1675.1953 322.66602 L 1726.1816 322.66602 L 1726.1816 267.7832 L 1675.1953 267.7832 L 1675.1953 182.42773 L 1603.1289 182.42773 z M 1731.1777 259.47266 L 1837.5977 548.25586 L 1894.1387 548.25586 L 2000 259.47266 L 1924.0684 259.47266 L 1865.8711 437.95312 L 1807.1152 259.47266 L 1731.1777 259.47266 z " style="fill:#000000;fill-opacity:1;fill-rule:nonzero;stroke:none" />
    <path transform="matrix(0.25,0,0,0.25,119.46734,347.0824)" d="M 1113.998 0 L 1113.998 187.04102 L 1178.623 187.04102 L 1178.623 0 L 1113.998 0 z M 1429.5352 36.042969 L 1255.0781 210.68359 L 1300.9238 256.63086 L 1475.4316 81.939453 L 1429.5352 36.042969 z M 190.0957 171.0332 C 188.79861 171.02747 187.49925 171.03526 186.19531 171.05664 C 134.12559 170.373 90.976888 188.46282 54.861328 226.01758 C 18.039208 262.91682 0 306.72778 0 358.9375 C 0 410.41646 18.039208 455.71588 54.861328 492.56836 C 90.976888 528.72456 134.12559 546.86523 186.19531 546.86523 C 227.92119 546.86523 266.16596 534.31098 299.47852 508.54102 C 332.14364 482.10126 353.69554 449.42091 364.8125 409.04688 L 289.07617 409.04688 C 279.34741 428.55084 265.45761 444.50049 248.06445 457.05469 C 228.60513 468.93081 208.45571 475.17969 186.19531 475.17969 C 154.25083 475.17969 127.16726 463.33871 104.89062 441.02539 C 82.019185 418.08495 70.867136 391.01398 71.541016 358.9375 C 70.867136 326.95858 82.019185 299.77189 104.89062 276.84961 C 127.16727 254.57089 154.25083 242.74805 186.19531 242.74805 C 208.45571 242.74805 228.60513 248.9852 248.06445 261.5332 C 265.45761 273.38104 279.34741 290.05539 289.07617 309.53711 L 364.8125 309.53711 C 353.69554 269.19147 332.14364 235.76329 299.47852 210.06641 C 267.20697 184.40569 230.30552 171.21087 190.0957 171.0332 z M 401.64062 171.05664 L 401.64062 548.25586 L 473.92383 548.25586 L 473.92383 171.05664 L 401.64062 171.05664 z M 650.7207 244.76562 C 648.79403 244.75665 646.85417 244.77427 644.90039 244.82031 C 596.24275 244.08311 562.18184 257.34623 542.72852 283.09375 C 530.24332 299.07015 523.98596 320.00959 521.875 346.44727 L 594.17578 346.44727 C 595.52842 333.93383 599.74668 325.56113 604.5918 320.00977 C 612.23184 310.22825 624.72864 305.3079 642.83008 306.05078 C 658.11232 305.3087 669.90631 308.1201 678.23047 313.00586 C 686.55043 317.18914 690.03791 325.56129 690.74023 337.38477 C 690.74023 347.08705 685.16521 354.81273 674.06641 359.66797 L 618.43945 368.65625 C 592.74877 372.18205 571.93706 378.39848 555.91406 387.5 C 528.83094 403.49456 515.65572 429.2074 516.33984 466.18164 C 515.65624 491.83176 523.98705 512.76193 540.62109 528.06641 C 555.21917 540.63277 575.36857 547.53881 599.74609 548.26953 C 639.33061 547.53881 670.56805 537.79631 692.81641 518.30859 L 692.81641 548.26953 L 765.15234 548.26953 L 765.15234 335.2793 C 765.15234 300.46878 752.55272 276.14703 728.9668 263.61523 C 705.49251 251.21968 679.62087 244.9003 650.7207 244.76562 z M 1137.5938 245.49219 C 1096.5986 245.49219 1061.1323 260.15395 1031.9727 290.06055 C 1002.0417 320.00987 987.48633 356.14142 987.48633 397.91406 C 987.48633 439.67454 1002.0417 475.84133 1031.9727 505.07617 C 1061.1323 535.03557 1096.5986 550.29883 1137.5938 550.29883 C 1178.5951 550.29883 1214.7333 535.03557 1244.6055 505.07617 C 1273.8057 475.84133 1288.4102 439.67454 1288.4102 397.91406 C 1288.4102 356.14142 1273.8057 320.00987 1244.6055 290.06055 C 1214.7333 260.15395 1178.5951 245.49219 1137.5938 245.49219 z M 980.57031 246.17188 L 961.81836 247.5918 L 933.94727 255.26172 C 914.54675 262.92612 897.17644 276.15392 882.52148 296.28516 L 882.52148 259.41016 L 813.73047 258.75391 L 813.73047 548.26758 L 885.32422 548.26758 L 885.32422 409.7832 C 885.32422 386.07744 888.11832 369.42114 894.39648 358.9375 C 899.20704 347.8509 908.24626 338.78292 919.41406 331.13672 C 931.89926 322.75996 945.08656 318.57031 959.0332 318.57031 L 981.22656 320.00781 L 980.57031 246.17188 z M 1133.5898 317.86133 C 1134.9137 317.83993 1136.2481 317.85234 1137.5938 317.89648 C 1159.8481 317.19012 1178.595 324.87715 1194.543 340.85547 C 1209.1755 356.14159 1216.8103 374.97978 1217.541 397.91406 C 1216.8103 419.47834 1209.1755 438.27583 1193.8711 454.29883 C 1178.5951 470.35219 1159.8481 477.92383 1137.5938 477.92383 C 1116.0641 477.92383 1097.2953 470.35219 1082.0254 454.29883 C 1066.7088 438.27583 1058.3594 419.47834 1058.3594 397.91406 C 1058.3594 374.97978 1066.7088 356.14159 1082.0254 340.85547 C 1096.3409 325.87579 1113.732 318.18232 1133.5898 317.86133 z M 1332.9316 329.01953 L 1332.9316 393.73633 L 1524.0684 393.73633 L 1524.0684 329.01953 L 1332.9316 329.01953 z M 689.33594 400.75 L 689.33594 429.94922 C 689.33594 454.94378 682.37996 472.37101 669.2168 482.09961 C 655.29876 491.83033 640.70617 496.72656 624.01953 496.72656 C 613.61281 496.72656 605.26212 493.91913 598.31836 488.40625 C 591.40284 482.09969 587.88281 473.08486 587.88281 459.86914 C 587.88281 445.27298 593.49311 434.7894 605.26367 427.125 C 612.23191 422.95992 624.01964 419.47771 639.33008 417.37695 L 675.4707 408.32227 L 689.33594 400.75 z " style="fill:#d52b1e;fill-opacity:1;fill-rule:nonzero;stroke:none" />
  </g>
</svg>
