<?xml version="1.0" encoding="UTF-8" standalone="no"?>
<svg
   xmlns:dc="http://purl.org/dc/elements/1.1/"
   xmlns:cc="http://creativecommons.org/ns#"
   xmlns:rdf="http://www.w3.org/1999/02/22-rdf-syntax-ns#"
   xmlns:svg="http://www.w3.org/2000/svg"
   xmlns="http://www.w3.org/2000/svg"
   xmlns:sodipodi="http://sodipodi.sourceforge.net/DTD/sodipodi-0.dtd"
   xmlns:inkscape="http://www.inkscape.org/namespaces/inkscape"
   id="header-logo-desktop"
   viewBox="0 0 90 53"
   version="1.1"
   sodipodi:docname="globo_com.svg"
   inkscape:version="1.0.2 (1.0.2+r75+1)">
  <metadata
     id="metadata13">
    <rdf:RDF>
      <cc:Work
         rdf:about="">
        <dc:format>image/svg+xml</dc:format>
        <dc:type
           rdf:resource="http://purl.org/dc/dcmitype/StillImage" />
      </cc:Work>
    </rdf:RDF>
  </metadata>
  <defs
     id="defs11" />
  <sodipodi:namedview
     pagecolor="#ffffff"
     bordercolor="#666666"
     borderopacity="1"
     objecttolerance="10"
     gridtolerance="10"
     guidetolerance="10"
     inkscape:pageopacity="0"
     inkscape:pageshadow="2"
     inkscape:window-width="1366"
     inkscape:window-height="708"
     id="namedview9"
     showgrid="false"
     inkscape:zoom="5.1886792"
     inkscape:cx="61.976982"
     inkscape:cy="27.823964"
     inkscape:window-x="0"
     inkscape:window-y="28"
     inkscape:window-maximized="1"
     inkscape:current-layer="header-logo-desktop" />
  <path
     id="path860"
     style="fill:#0669de;fill-opacity:1"
     d="M 79.599609 9 C 77.899609 9 76.300391 9.4007812 74.900391 10.300781 C 71.800391 12.200781 69.899219 15.700781 69.699219 19.300781 C 69.599219 21.700781 70.1 24.300781 71.5 26.300781 A 9.4 9.4 0 0 0 75.300781 29.800781 A 10 10 0 0 0 84.900391 29.400391 C 87.600391 27.800391 89.300781 24.800781 89.800781 21.800781 C 90.400781 17.900781 89 13.699219 86 11.199219 C 84.2 9.6992188 81.899609 8.9 79.599609 9 z M 80.271484 14.183594 C 80.937109 14.225781 81.574609 14.450391 82.099609 14.900391 A 5 5 0 0 1 83.900391 17.5 C 84.500391 19.3 84.5 21.399609 83.5 23.099609 C 82.9 24.599609 81.399219 25.699609 79.699219 25.599609 A 4.1 4.1 0 0 1 76 23.099609 C 74.9 20.599609 75.100391 17.500391 76.900391 15.400391 C 77.600391 14.600391 78.599609 14.199219 79.599609 14.199219 C 79.824609 14.174219 80.049609 14.169531 80.271484 14.183594 z " />
  <path
     id="path856"
     style="fill:#0669de;fill-opacity:1"
     d="M 51.75 -0.01171875 C 50.925 0.00078125 50.099609 0.35 49.599609 1 L 49.599609 1.0996094 C 48.999609 1.7996094 48.900391 2.6 48.900391 3.5 L 48.900391 26.699219 C 48.900391 27.499219 48.900781 28.399609 49.300781 29.099609 C 50.100781 30.599609 52.2 30.8 53.5 30 C 54 29.5 54.299609 28.799219 54.599609 28.199219 C 55.899609 30.099219 58.399219 30.999609 60.699219 30.599609 A 8.6 8.6 0 0 0 66.099609 27.800781 C 67.599609 26.200781 68.600391 24.000781 68.900391 21.800781 C 69.200391 19.900781 68.9 17.899609 68.5 16.099609 C 67.8 13.799609 66.5 11.499219 64.5 10.199219 C 61.5 8.0992187 57.3 8.4992188 54.5 10.699219 L 54.5 3.6992188 C 54.5 2.7992187 54.500391 1.7 53.900391 1 C 53.400391 0.3 52.575 -0.02421875 51.75 -0.01171875 z M 58.800781 14 L 58.800781 14.099609 A 3.7 3.7 0 0 1 61.599609 15.199219 C 63.899609 17.599219 63.900391 21.699219 61.900391 24.199219 C 60.500391 25.699219 58 25.999219 56.5 24.699219 C 55.1 23.399219 54.599609 21.499219 54.599609 19.699219 A 6.5 6.5 0 0 1 56 15.300781 C 56.7 14.500781 57.800781 14.1 58.800781 14 z " />
  <path
     id="path852"
     style="fill:#0669de;fill-opacity:1"
     d="M 37.699219 9 C 35.999219 9 34.4 9.4007813 33 10.300781 C 29.9 12.200781 28.100781 15.700781 27.800781 19.300781 C 27.800781 21.700781 28.299609 24.300781 29.599609 26.300781 C 30.499609 27.800781 31.900391 29.000781 33.400391 29.800781 A 10 10 0 0 0 43.099609 29.400391 C 45.799609 27.800391 47.400391 24.800781 47.900391 21.800781 C 48.500391 17.900781 47.099609 13.699219 44.099609 11.199219 C 42.399609 9.6992188 39.999219 8.9 37.699219 9 z M 38.371094 14.183594 C 39.036719 14.225781 39.674219 14.450391 40.199219 14.900391 A 5 5 0 0 1 42 17.5 C 42.5 19.3 42.599219 21.399609 41.699219 23.099609 C 40.999219 24.599609 39.500391 25.699609 37.900391 25.599609 A 4.1 4.1 0 0 1 34.199219 23.099609 C 32.999219 20.599609 33.3 17.500391 35 15.400391 C 35.7 14.600391 36.699219 14.199219 37.699219 14.199219 C 37.924219 14.174219 38.149219 14.169531 38.371094 14.183594 z " />
  <path
     id="path848"
     style="fill:#0669de;fill-opacity:1"
     d="M 8.9433594 9.0136719 A 7.8 7.8 0 0 0 3.8007812 11 L 3.8007812 10.900391 A 11 11 0 0 0 0.30078125 16.900391 C -0.19921875 18.900391 -0.09921875 21 0.30078125 23 A 10.2 10.2 0 0 0 3.0996094 28.599609 C 5.3996094 30.899609 9 31.399609 12 30.099609 C 13 29.699609 13.8 28.899609 14.5 28.099609 C 14.5 29.199609 14.599219 30.300781 14.199219 31.300781 C 13.699219 32.700781 12.199219 33.700781 10.699219 33.800781 C 8.6992188 34.200781 6.8 33.600781 5 32.800781 C 4 32.400781 2.8007812 31.900391 1.8007812 32.400391 C 1.0007813 32.900391 0.40039062 33.699219 0.40039062 34.699219 C 0.40039062 35.699219 1.2 36.5 2 37 C 3.5 38 5.3992187 38.399219 7.1992188 38.699219 A 13.7 13.7 0 0 0 15.599609 37.400391 A 8.9 8.9 0 0 0 18.900391 34.199219 C 19.800391 32.299219 20.099609 30.199219 20.099609 28.199219 L 20.099609 13 C 20.099609 12 20.000781 10.8 19.300781 10 C 18.300781 8.9 16.5 9.0007812 15.5 9.8007812 C 15 10.200781 14.7 10.9 14.5 11.5 A 8.5 8.5 0 0 0 12.800781 10 A 7.8 7.8 0 0 0 8.9433594 9.0136719 z M 10.472656 14.183594 C 11.138281 14.225781 11.775781 14.450391 12.300781 14.900391 C 13.300781 15.500391 13.699609 16.699219 14.099609 17.699219 C 14.499609 19.199219 14.599609 20.799219 14.099609 22.199219 A 4.8 4.8 0 0 1 11.900391 25.199219 C 10.300391 25.999219 8.0003906 25.7 6.9003906 24 C 6.0003906 23 5.6992188 21.5 5.6992188 20 A 7.2 7.2 0 0 1 7 15.599609 C 7.7 14.799609 8.8007812 14.199219 9.8007812 14.199219 C 10.025781 14.174219 10.250781 14.169531 10.472656 14.183594 z " />
  <path
     d="m 23.4,0.2 c 1.1,-0.4 2.4,0.1 3,1.1 0.5,0.8 0.5,1.7 0.6,2.6 v 22.8 c 0,0.8 -0.1,1.6 -0.4,2.3 -0.6,1.5 -2.8,2.1 -4,1 -1.1,-0.6 -1.3,-2 -1.3,-3 V 3 c 0,-1.2 0.8,-2.6 2.1,-2.8 z"
     id="path2"
     style="fill:#0669de;fill-opacity:1" />
  <path
     id="path4"
     style="fill:#0669de;fill-opacity:1"
     d="M 42.144531 32.951172 C 41.82793 32.946289 41.511719 32.9625 41.199219 33 C 40.199219 33.2 39.099219 33.5 38.199219 34 C 35.499219 35.3 33.800781 38.1 33.300781 41 A 10 10 0 0 0 37.099609 50.599609 A 8.8 8.8 0 0 0 48.199219 49.599609 A 10.3 10.3 0 0 0 48.199219 35.599609 C 46.624219 34.024609 44.360742 32.985352 42.144531 32.951172 z M 42.021484 37.550781 A 3.4 3.4 0 0 1 45 39.199219 C 46.2 41.199219 46.3 44 45 46 C 44.2 47.5 42.1 48.000781 40.5 47.300781 C 38.7 46.300781 37.999219 44 38.199219 42 C 38.299219 40.1 39.5 37.899609 41.5 37.599609 A 3.4 3.4 0 0 1 42.021484 37.550781 z " />
  <path
     d="m 59,33.3 c 1.8,-0.7 4,-0.4 5.6,0.7 l 1.5,1.4 A 8.2,8.2 0 0 1 70.5,33 c 2,-0.3 4.2,0.3 5.7,1.6 a 6.6,6.6 0 0 1 1.8,5 v 9.2 c 0,0.9 -0.1,2 -1,2.5 C 76,52.1 74.5,52 73.7,50.9 73.1,50.1 73.1,49 73,48 v -8 c 0,-1 -0.6,-2.1 -1.5,-2.6 -1,-0.4 -2.3,-0.4 -3,0.4 -1,0.7 -1.2,1.8 -1.2,2.8 v 8.7 c 0,1.3 -1,2.7 -2.4,2.6 C 64.2,52 63.5,51.6 63,51.1 62.5,50.4 62.4,49.5 62.4,48.6 V 40 a 3.4,3.4 0 0 0 -1.1,-2.2 c -1.2,-1 -3.2,-0.8 -4,0.4 -0.6,0.8 -0.7,1.7 -0.7,2.6 V 49 A 3,3 0 0 1 56,51 2.4,2.4 0 0 1 52.4,51.2 C 51.7,50.4 51.6,49.3 51.6,48.3 V 37.5 c 0,-1 0,-2 0.3,-2.9 0.6,-1.5 2.9,-1.9 4,-0.7 L 56.4,35 C 57.2,34.3 58,33.7 59,33.4 Z"
     id="path866"
     style="fill:#0669de;fill-opacity:1" />
  <path
     d="m 26.6,33 c 1.8,-0.3 3.5,0.1 5,0.7 a 4,4 0 0 1 1.7,1.4 c 0.6,1.2 0,3 -1.3,3.3 -1.1,0.2 -2,-0.6 -3,-0.8 a 4,4 0 0 0 -3.9,0.9 c -1.5,1.6 -1.7,4.1 -1,6.2 0.5,1.4 1.8,2.8 3.4,2.7 1.2,0.2 2.3,-0.5 3.4,-0.8 1.3,-0.5 2.7,0.7 2.6,2 0.1,1 -0.7,2 -1.6,2.3 a 9.3,9.3 0 0 1 -7.4,0.6 9,9 0 0 1 -5.6,-6.8 c -0.6,-2.6 0,-5.5 1.4,-7.8 a 8.5,8.5 0 0 1 6.4,-4 z"
     id="path864"
     style="fill:#0669de;fill-opacity:1" />
  <path
     d="m 15.5,46.9 c 1.6,-0.5 3.2,0.8 3.2,2.4 0.2,1.5 -1.1,2.9 -2.6,2.8 -1.3,0.1 -2.4,-1 -2.6,-2.2 -0.3,-1.4 0.7,-2.8 2,-3 z"
     id="path844"
     style="fill:#0669de;fill-opacity:1" />
</svg>
