<?xml version="1.0" encoding="UTF-8" standalone="no" ?>
<!DOCTYPE svg PUBLIC "-//W3C//DTD SVG 1.1//EN" "http://www.w3.org/Graphics/SVG/1.1/DTD/svg11.dtd">
<svg xmlns="http://www.w3.org/2000/svg" xmlns:xlink="http://www.w3.org/1999/xlink" version="1.1" width="500" height="480" viewBox="0 0 500 480" xml:space="preserve">
<desc>Created with Fabric.js 3.6.3</desc>
<defs>
</defs>
<g transform="matrix(1.76 0 0 1.76 250.24 240.24)"  >
<g style=""   >
		<g transform="matrix(1 0 0 1 0 0)" id="Livello_1"  >
<linearGradient id="SVGID_linear-gradient_6" gradientUnits="userSpaceOnUse" gradientTransform="matrix(1 0 0 1 -120 -120)"  x1="120" y1="240" x2="120" y2="0">
<stop offset="0%" style="stop-color:rgb(29,147,210);stop-opacity: 1"/>
<stop offset="100%" style="stop-color:rgb(56,176,227);stop-opacity: 1"/>
</linearGradient>
<circle style="stroke: none; stroke-width: 1; stroke-dasharray: none; stroke-linecap: butt; stroke-dashoffset: 0; stroke-linejoin: miter; stroke-miterlimit: 4; fill: url(#SVGID_linear-gradient_6); fill-rule: nonzero; opacity: 1;"  cx="0" cy="0" r="120" />
</g>
		<g transform="matrix(1 0 0 1 1.08 6.67)" id="Livello_1"  >
<path style="stroke: none; stroke-width: 1; stroke-dasharray: none; stroke-linecap: butt; stroke-dashoffset: 0; stroke-linejoin: miter; stroke-miterlimit: 4; fill: rgb(200,218,234); fill-rule: nonzero; opacity: 1;"  transform=" translate(-121.08, -126.67)" d="M 81.229 128.772 l 14.237 39.406 s 1.78 3.687 3.686 3.687 s 30.255 -29.492 30.255 -29.492 l 31.525 -60.89 L 81.737 118.6 Z" stroke-linecap="round" />
</g>
		<g transform="matrix(1 0 0 1 -10.07 35.38)" id="Livello_1"  >
<path style="stroke: none; stroke-width: 1; stroke-dasharray: none; stroke-linecap: butt; stroke-dashoffset: 0; stroke-linejoin: miter; stroke-miterlimit: 4; fill: rgb(169,198,216); fill-rule: nonzero; opacity: 1;"  transform=" translate(-109.93, -155.38)" d="M 100.106 138.878 l -2.733 29.046 s -1.144 8.9 7.754 0 s 17.415 -15.763 17.415 -15.763" stroke-linecap="round" />
</g>
		<g transform="matrix(1 0 0 1 -5.56 1.31)" id="Livello_1"  >
<path style="stroke: none; stroke-width: 1; stroke-dasharray: none; stroke-linecap: butt; stroke-dashoffset: 0; stroke-linejoin: miter; stroke-miterlimit: 4; fill: rgb(255,255,255); fill-rule: nonzero; opacity: 1;"  transform=" translate(-114.44, -121.31)" d="M 81.486 130.178 L 52.2 120.636 s -3.5 -1.42 -2.373 -4.64 c 0.232 -0.664 0.7 -1.229 2.1 -2.2 c 6.489 -4.523 120.106 -45.36 120.106 -45.36 s 3.208 -1.081 5.1 -0.362 a 2.766 2.766 0 0 1 1.885 2.055 a 9.357 9.357 0 0 1 0.254 2.585 c -0.009 0.752 -0.1 1.449 -0.169 2.542 c -0.692 11.165 -21.4 94.493 -21.4 94.493 s -1.239 4.876 -5.678 5.043 A 8.13 8.13 0 0 1 146.1 172.5 c -8.711 -7.493 -38.819 -27.727 -45.472 -32.177 a 1.27 1.27 0 0 1 -0.546 -0.9 c -0.093 -0.469 0.417 -1.05 0.417 -1.05 s 52.426 -46.6 53.821 -51.492 c 0.108 -0.379 -0.3 -0.566 -0.848 -0.4 c -3.482 1.281 -63.844 39.4 -70.506 43.607 A 3.21 3.21 0 0 1 81.486 130.178 Z" stroke-linecap="round" />
</g>
</g>
</g>
</svg>